<svg width="90" height="90" viewBox="0 0 90 90" fill="none" xmlns="http://www.w3.org/2000/svg">
<path d="M45 20.5875V76.8375M29.0625 31.8375H20.625M31.875 43.0875H20.625M82.5 62.775V17.5125C82.5 13.0125 78.825 9.67501 74.3625 10.05H74.1375C66.2625 10.725 54.3 14.7375 47.625 18.9375L46.9875 19.35C45.9 20.025 44.1 20.025 43.0125 19.35L42.075 18.7875C35.4 14.625 23.475 10.65 15.6 10.0125C11.1375 9.63751 7.5 13.0125 7.5 17.475V62.775C7.5 66.375 10.425 69.75 14.025 70.2L15.1125 70.35C23.25 71.4375 35.8125 75.5625 43.0125 79.5L43.1625 79.575C44.175 80.1375 45.7875 80.1375 46.7625 79.575C53.9625 75.6 66.5625 71.4375 74.7375 70.35L75.975 70.2C79.575 69.75 82.5 66.375 82.5 62.775Z" stroke="black" stroke-width="1.5" stroke-linecap="round" stroke-linejoin="round"/>
</svg>
