<svg width="90" height="90" viewBox="0 0 90 90" fill="none" xmlns="http://www.w3.org/2000/svg">
<path d="M7.5 82.5H82.5M74.925 82.5375V67.5M11.25 52.5H56.25M33.75 82.5V68.4375M56.2875 82.4625L11.2875 82.5375L11.25 26.5125C11.25 24 12.525 21.675 14.5875 20.2875L29.5875 10.275C32.1 8.58749 35.4 8.58749 37.9125 10.275L52.9125 20.2875C55.0125 21.675 56.25 24 56.25 26.5125L56.2875 82.4625ZM75 45C70.875 45 67.5 48.375 67.5 52.5V60C67.5 64.125 70.875 67.5 75 67.5C79.125 67.5 82.5 64.125 82.5 60V52.5C82.5 48.375 79.125 45 75 45Z" stroke="black" stroke-width="1.5" stroke-miterlimit="10" stroke-linecap="round" stroke-linejoin="round"/>
<path d="M33.75 39.375C35.2418 39.375 36.6726 38.7824 37.7275 37.7275C38.7824 36.6726 39.375 35.2418 39.375 33.75C39.375 32.2582 38.7824 30.8274 37.7275 29.7725C36.6726 28.7176 35.2418 28.125 33.75 28.125C32.2582 28.125 30.8274 28.7176 29.7725 29.7725C28.7176 30.8274 28.125 32.2582 28.125 33.75C28.125 35.2418 28.7176 36.6726 29.7725 37.7275C30.8274 38.7824 32.2582 39.375 33.75 39.375Z" stroke="black" stroke-width="1.5" stroke-miterlimit="10" stroke-linecap="round" stroke-linejoin="round"/>
</svg>
