<svg width="90" height="90" viewBox="0 0 90 90" fill="none" xmlns="http://www.w3.org/2000/svg">
<path d="M15 30H11.25M78.75 30H75M45 11.25V18.75M39.375 18.75H50.625M22.5 56.25H33.75M56.25 56.25H67.5M58.1625 10.6125H31.8375C22.5 10.6125 20.4375 15.2625 19.2375 20.9625L15 41.25H75L70.7625 20.9625C69.5625 15.2625 67.5 10.6125 58.1625 10.6125ZM82.4625 74.325C82.875 78.7125 79.35 82.5 74.85 82.5H67.8C63.75 82.5 63.1875 80.775 62.475 78.6375L61.725 76.3875C60.675 73.3125 60 71.25 54.6 71.25H35.4C30 71.25 29.2125 73.575 28.275 76.3875L27.525 78.6375C26.8125 80.775 26.25 82.5 22.2 82.5H15.15C10.65 82.5 7.12499 78.7125 7.53749 74.325L9.63749 51.4875C10.1625 45.8625 11.25 41.25 21.075 41.25H68.925C78.75 41.25 79.8375 45.8625 80.3625 51.4875L82.4625 74.325Z" stroke="black" stroke-width="1.5" stroke-linecap="round" stroke-linejoin="round"/>
</svg>
