<svg width="90" height="90" viewBox="0 0 90 90" fill="none" xmlns="http://www.w3.org/2000/svg">
<path d="M81.7875 14.775C76.0125 29.175 61.5375 48.75 49.425 58.4625L42.0375 64.3875C41.1 65.0625 40.1625 65.6625 39.1125 66.075C39.1125 65.4 39.075 64.65 38.9625 63.9375C38.55 60.7875 37.125 57.8625 34.6125 55.35C32.0625 52.8 28.95 51.3 25.7625 50.8875C25.0125 50.85 24.2625 50.775 23.5125 50.85C23.925 49.6875 24.5625 48.6 25.35 47.7L31.2 40.3125C40.875 28.2 60.525 13.65 74.8875 7.9125C77.1 7.0875 79.2375 7.6875 80.5875 9.075C82.0125 10.4625 82.6875 12.6 81.7875 14.775Z" stroke="black" stroke-width="1.5" stroke-linecap="round" stroke-linejoin="round"/>
<path d="M53.4 54.2625C53.4 44.475 45.45 36.525 35.6625 36.525M39.1125 66.075C39.1125 70.2 37.5375 74.1375 34.575 77.1375C32.2875 79.425 29.175 81 25.4625 81.4875L16.2375 82.5C11.2125 83.0625 6.89999 78.7875 7.49999 73.6875L8.51249 64.4625C9.41249 56.25 16.275 51 23.55 50.85C24.3 50.8125 25.0875 50.85 25.8 50.8875C28.9875 51.3 32.1 52.7625 34.65 55.35C37.1625 57.8625 38.5875 60.7875 39 63.9375C39.0375 64.65 39.1125 65.3625 39.1125 66.075Z" stroke="black" stroke-width="1.5" stroke-linecap="round" stroke-linejoin="round"/>
<path d="M50.5125 78.2625C56.025 83.775 61.6125 83.775 67.125 78.2625L78.225 67.1625C83.8125 61.575 83.8125 56.0625 78.225 50.475L75.45 47.7375L64.35 58.8M11.6625 39.4125C6.15001 33.825 6.15001 28.3125 11.6625 22.725L22.7625 11.625C28.275 6.11251 33.8625 6.11251 39.375 11.625L42.15 14.4M42.1875 14.4375L28.3125 28.3125" stroke="black" stroke-width="1.5" stroke-linecap="round"/>
</svg>
