<svg width="90" height="90" viewBox="0 0 90 90" fill="none" xmlns="http://www.w3.org/2000/svg">
<path d="M79.6125 33.45H64.2375M25.7625 33.45H10.3875M9.82501 59.0625V30.9375C9.82501 28.05 9.93751 25.4625 10.2375 23.175C11.625 10.8375 17.4375 7.5 33.3 7.5H56.7375C72.5625 7.5 78.4125 10.8375 79.7625 23.175C80.1 25.4625 80.175 28.05 80.175 30.9375V59.0625C80.175 61.95 80.0625 64.5375 79.7625 66.8625C78.375 79.1625 72.5625 82.5 56.7 82.5H33.3C17.475 82.5 11.625 79.1625 10.275 66.8625C9.93751 64.5375 9.82501 61.95 9.82501 59.0625Z" stroke="black" stroke-width="1.5" stroke-linecap="round" stroke-linejoin="round"/>
<path d="M64.2375 33.45C64.2375 37.6875 60.7875 41.1375 56.55 41.1375H33.45C31.35 41.1375 29.4 40.275 28.0125 38.85C26.625 37.5 25.7625 35.5875 25.7625 33.45C25.7625 29.2125 29.2125 25.7625 33.45 25.7625H56.5125C58.6125 25.7625 60.5625 26.625 61.95 28.05C63.375 29.4375 64.2375 31.35 64.2375 33.45Z" stroke="black" stroke-width="1.5" stroke-linecap="round" stroke-linejoin="round"/>
</svg>
