<svg width="90" height="90" viewBox="0 0 90 90" fill="none" xmlns="http://www.w3.org/2000/svg">
<path d="M45 82.5V73.5M45 48.75V41.25M45 7.5V17.5875M65.25 72.1875H24.75C19.125 72.1875 16.875 69.7875 16.875 63.825V59.925C16.875 53.9625 19.125 51.5625 24.75 51.5625H65.25C70.875 51.5625 73.125 53.9625 73.125 59.925V63.825C73.125 69.7875 70.875 72.1875 65.25 72.1875ZM57.75 40.3125H32.25C26.625 40.3125 24.375 37.9125 24.375 31.95V28.05C24.375 22.0875 26.625 19.6875 32.25 19.6875H57.75C63.375 19.6875 65.625 22.0875 65.625 28.05V31.95C65.625 37.9125 63.375 40.3125 57.75 40.3125Z" stroke="black" stroke-width="1.5" stroke-linecap="round" stroke-linejoin="round"/>
</svg>
